<svg xmlns="http://www.w3.org/2000/svg" version="1.1" xmlns:xlink="http://www.w3.org/1999/xlink" xmlns:svgjs="http://svgjs.com/svgjs" width="256" height="256"><svg width="256" height="256" viewBox="0 0 256 256" fill="none" xmlns="http://www.w3.org/2000/svg">
<g clip-path="url(#clip0_19_9)">
<path d="M104.719 148.969H132.746C139.126 148.904 145.148 147.927 150.812 146.039C156.542 144.151 161.555 141.417 165.852 137.836C170.148 134.255 173.534 129.861 176.008 124.652C178.547 119.379 179.816 113.324 179.816 106.488C179.816 99.6523 178.547 93.5977 176.008 88.3242C173.534 83.0508 170.148 78.6237 165.852 75.043C161.555 71.4622 156.542 68.7279 150.812 66.8398C145.148 64.9518 139.126 63.9427 132.746 63.8125H86.6523V206H104.719V148.969ZM104.719 134.125V78.6562H132.746C136.913 78.7214 140.754 79.4049 144.27 80.707C147.85 82.0091 150.943 83.8646 153.547 86.2734C156.086 88.6823 158.072 91.612 159.504 95.0625C161.001 98.513 161.75 102.387 161.75 106.684C161.75 110.98 161.001 114.822 159.504 118.207C158.072 121.527 156.053 124.359 153.449 126.703C150.845 129.047 147.785 130.87 144.27 132.172C140.754 133.409 136.913 134.06 132.746 134.125H104.719Z" fill="#3A86FF"></path>
</g>
<defs>
<clipPath id="SvgjsClipPath1000">
<rect width="256" height="256" fill="white"></rect>
</clipPath>
</defs>
</svg><style>@media (prefers-color-scheme: light) { :root { filter: none; } }
</style></svg>